# xmcd CD database file
#
# Track frame offsets:
#	150
#	23202
#	42222
#	62475
#	82392
#	103815
#	123880
#	142102
#	163220
#	183052
#	206185
#	226415
#	243240
#	266335
#	287737
#	308207
#
# Disc length: 4360 seconds
#
# Revision: 0
# Processed by: cddbd v1.5PL3 Copyright (c) Steve Scherf et al.
# Submitted via: CDex 1.50
#
DISCID=e6110610
DTITLE=Various Artist - 最新演歌全曲集「橋／懲りない私」
DYEAR=2000
DGENRE=
TTITLE0=橋 - 北島三郎
TTITLE1=懲りない私 - 瀬川瑛子
TTITLE2=博多っ娘純情 - 川野夏美
TTITLE3=この身がちぎれるほどに - アグネス・チャン
TTITLE4=三日三晩 - 黒木梨花
TTITLE5=東京ホテル - 美川憲一
TTITLE6=関東春雨傘 - 水前寺清子
TTITLE7=２０００年音頭 - 北島三郎
TTITLE8=あなたが命 - 瀬川瑛子
TTITLE9=風の旅人 - 門脇陸男
TTITLE10=淡雪の花 - 真吹よう子
TTITLE11=青春は終わらない - 和田青児
TTITLE12=のぼり坂 - 北島三郎
TTITLE13=まこと酒 - 真木ことみ
TTITLE14=陽は昇る - キム・ヨンジャ
TTITLE15=東海道 - 鳥羽一郎
EXTD=YEAR: 2000
EXTT0=
EXTT1=
EXTT2=
EXTT3=
EXTT4=
EXTT5=
EXTT6=
EXTT7=
EXTT8=
EXTT9=
EXTT10=
EXTT11=
EXTT12=
EXTT13=
EXTT14=
EXTT15=
PLAYORDER=
